<svg width="204" height="64" viewBox="0 0 204 64" fill="none" xmlns="http://www.w3.org/2000/svg">
<path d="M20.0829 43V31.032L16.2749 39.448H12.9469L9.13888 31.032V43H2.89888V20.28H9.71488L14.6109 30.968L19.5389 20.28H26.3229V43H20.0829ZM33.5066 37.24V26.168H39.5866V35.864C39.5866 36.5893 39.7466 37.1653 40.0666 37.592C40.408 37.9973 40.8666 38.2 41.4426 38.2C41.7626 38.2 42.0826 38.1573 42.4026 38.072C42.7226 37.9867 43.0426 37.816 43.3626 37.56C43.704 37.304 44.0346 36.9413 44.3546 36.472V26.168H50.4346V36.28C50.4346 36.856 50.52 37.2613 50.6906 37.496C50.8613 37.7093 51.16 37.8373 51.5866 37.88V43C51.0533 43.1067 50.5733 43.1813 50.1466 43.224C49.72 43.288 49.3466 43.32 49.0266 43.32C48.0026 43.32 47.192 43.128 46.5946 42.744C45.9973 42.36 45.6133 41.7733 45.4426 40.984L45.3146 40.376C44.5253 41.4213 43.576 42.1787 42.4666 42.648C41.3786 43.096 40.1413 43.32 38.7546 43.32C37.0693 43.32 35.768 42.7973 34.8506 41.752C33.9546 40.7067 33.5066 39.2027 33.5066 37.24ZM64.6649 43.32C63.1929 43.32 61.7422 43.0853 60.3129 42.616C58.9049 42.1253 57.7102 41.4213 56.7289 40.504L58.8089 36.76C59.8542 37.4427 60.8569 37.976 61.8169 38.36C62.7982 38.744 63.6835 38.936 64.4729 38.936C64.9209 38.936 65.2515 38.8827 65.4649 38.776C65.6782 38.648 65.7849 38.4453 65.7849 38.168C65.7849 37.976 65.7102 37.816 65.5609 37.688C65.4115 37.56 65.1662 37.432 64.8249 37.304C64.5049 37.176 64.0889 37.0373 63.5769 36.888C62.2542 36.4187 61.1449 35.9813 60.2489 35.576C59.3742 35.1707 58.7129 34.68 58.2649 34.104C57.8382 33.5067 57.6249 32.7173 57.6249 31.736C57.6249 30.584 57.9129 29.5707 58.4889 28.696C59.0649 27.8 59.8862 27.096 60.9529 26.584C62.0409 26.072 63.3422 25.816 64.8569 25.816C65.9875 25.816 67.1182 25.9973 68.2489 26.36C69.4009 26.7013 70.5102 27.3307 71.5769 28.248L69.2729 31.96C68.2062 31.2987 67.2995 30.8293 66.5529 30.552C65.8275 30.2747 65.1769 30.136 64.6009 30.136C64.3235 30.136 64.0782 30.168 63.8649 30.232C63.6729 30.296 63.5235 30.392 63.4169 30.52C63.3102 30.648 63.2569 30.8187 63.2569 31.032C63.2569 31.2453 63.3315 31.4267 63.4809 31.576C63.6302 31.704 63.8649 31.832 64.1849 31.96C64.5049 32.0667 64.9102 32.1947 65.4009 32.344C66.8515 32.7707 68.0355 33.208 68.9529 33.656C69.8702 34.0827 70.5422 34.6053 70.9689 35.224C71.4169 35.8427 71.6409 36.6533 71.6409 37.656C71.6409 39.4267 71.0115 40.8133 69.7529 41.816C68.5155 42.8187 66.8195 43.32 64.6649 43.32ZM77.7841 43V26.168H83.8641V43H77.7841ZM77.7841 24.76V19.64H83.8641V24.76H77.7841ZM99.1004 43.32C97.607 43.32 96.2844 43.0853 95.1324 42.616C94.0017 42.1467 93.0417 41.5067 92.2524 40.696C91.463 39.864 90.8657 38.9253 90.4604 37.88C90.055 36.8347 89.8524 35.736 89.8524 34.584C89.8524 33.048 90.2044 31.6187 90.9084 30.296C91.6337 28.952 92.679 27.8747 94.0444 27.064C95.431 26.2533 97.1164 25.848 99.1004 25.848C101.127 25.848 102.834 26.2747 104.22 27.128C105.607 27.9813 106.642 29.08 107.324 30.424L101.404 32.216C101.127 31.8107 100.786 31.5013 100.38 31.288C99.9964 31.0747 99.559 30.968 99.0684 30.968C98.5137 30.968 98.0124 31.1173 97.5644 31.416C97.1164 31.6933 96.7537 32.0987 96.4764 32.632C96.2204 33.1653 96.0924 33.816 96.0924 34.584C96.0924 35.3307 96.2204 35.9813 96.4764 36.536C96.7537 37.0693 97.1164 37.4853 97.5644 37.784C98.0124 38.0613 98.5137 38.2 99.0684 38.2C99.4097 38.2 99.719 38.1573 99.9964 38.072C100.274 37.9653 100.53 37.816 100.764 37.624C101.02 37.432 101.234 37.208 101.404 36.952L107.324 38.744C106.876 39.64 106.258 40.4293 105.468 41.112C104.7 41.7947 103.783 42.3387 102.716 42.744C101.671 43.128 100.466 43.32 99.1004 43.32ZM121.221 43.32C119.728 43.32 118.405 43.0853 117.253 42.616C116.101 42.1467 115.13 41.5067 114.341 40.696C113.573 39.864 112.986 38.9253 112.581 37.88C112.197 36.8347 112.005 35.736 112.005 34.584C112.005 33.432 112.197 32.3333 112.581 31.288C112.986 30.2213 113.573 29.2827 114.341 28.472C115.13 27.6613 116.101 27.0213 117.253 26.552C118.405 26.0827 119.728 25.848 121.221 25.848C122.736 25.848 124.058 26.0827 125.189 26.552C126.341 27.0213 127.301 27.6613 128.069 28.472C128.858 29.2827 129.445 30.2213 129.829 31.288C130.234 32.3333 130.437 33.432 130.437 34.584C130.437 35.736 130.234 36.8347 129.829 37.88C129.445 38.9253 128.858 39.864 128.069 40.696C127.301 41.5067 126.341 42.1467 125.189 42.616C124.058 43.0853 122.736 43.32 121.221 43.32ZM118.245 34.584C118.245 35.3307 118.373 35.9813 118.629 36.536C118.885 37.0693 119.237 37.4853 119.685 37.784C120.133 38.0613 120.645 38.2 121.221 38.2C121.797 38.2 122.309 38.0613 122.757 37.784C123.205 37.4853 123.557 37.0693 123.813 36.536C124.069 35.9813 124.197 35.3307 124.197 34.584C124.197 33.8373 124.069 33.1973 123.813 32.664C123.557 32.1093 123.205 31.6933 122.757 31.416C122.309 31.1173 121.797 30.968 121.221 30.968C120.645 30.968 120.133 31.1173 119.685 31.416C119.237 31.6933 118.885 32.1093 118.629 32.664C118.373 33.1973 118.245 33.8373 118.245 34.584Z" fill="white" fill-opacity="0.75"/>
<circle cx="189.778" cy="31.9999" r="14.2222" transform="rotate(-180 189.778 31.9999)" fill="#005609"/>
<circle cx="163.111" cy="31.9998" r="8.88889" transform="rotate(-180 163.111 31.9998)" fill="#005609" fill-opacity="0.75"/>
<circle cx="145.333" cy="32.0002" r="5.33333" transform="rotate(-180 145.333 32.0002)" fill="#005609" fill-opacity="0.5"/>
</svg>
